<?xml version="1.0" standalone="no"?>
<!DOCTYPE svg PUBLIC "-//W3C//DTD SVG 20010904//EN"
 "http://www.w3.org/TR/2001/REC-SVG-20010904/DTD/svg10.dtd">
<svg version="1.0" xmlns="http://www.w3.org/2000/svg"
 width="415.000000pt" height="415.000000pt" viewBox="0 0 415.000000 415.000000"
 preserveAspectRatio="xMidYMid meet">
<metadata>
Created by potrace 1.11, written by Peter Selinger 2001-2013
</metadata>
<g transform="translate(0.000000,415.000000) scale(0.100000,-0.100000)"
fill="#000000" stroke="none">
<path d="M1743 3838 c-6 -7 -38 -63 -72 -124 -35 -61 -72 -116 -82 -122 -11
-7 -49 -15 -87 -17 l-67 -6 -104 101 c-57 55 -107 100 -111 100 -4 0 -24 -57
-44 -127 -49 -170 -48 -169 -102 -193 -79 -34 -85 -34 -180 11 -49 23 -108 49
-130 59 l-42 18 -6 -30 c-3 -17 -6 -86 -6 -153 l0 -123 -57 -47 c-57 -45 -59
-46 -115 -40 -31 3 -66 8 -78 10 -55 11 -160 17 -160 9 0 -5 12 -74 26 -155
l27 -146 -52 -87 c-129 -212 -207 -442 -245 -712 l-4 -31 78 -18 c43 -10 83
-21 89 -24 10 -7 21 -248 12 -273 -3 -8 -38 -43 -76 -76 l-71 -61 -17 -103
c-9 -57 -22 -130 -28 -163 -25 -131 -20 -224 17 -300 22 -47 96 -128 148 -164
61 -42 104 -52 215 -52 82 0 111 5 159 24 l59 24 96 -92 97 -92 -19 -44 c-35
-81 -34 -177 3 -234 l17 -26 28 20 c27 19 28 19 57 2 17 -10 38 -31 49 -47 31
-48 46 -55 73 -34 18 14 29 16 53 10 60 -17 210 4 310 43 25 10 104 14 302 15
297 2 349 9 527 69 119 40 228 88 311 139 31 19 58 34 60 34 2 0 5 -24 5 -53
1 -33 10 -69 24 -96 l22 -44 24 26 c21 22 28 25 56 17 31 -9 37 -15 59 -52 13
-24 37 -23 57 2 14 15 31 20 82 21 100 1 158 21 208 70 57 57 88 125 112 244
10 55 26 134 35 175 18 78 15 162 -5 199 -6 12 -42 36 -81 53 -53 24 -69 35
-64 47 3 9 22 57 41 106 l36 90 81 44 c146 77 332 191 418 256 173 130 324
296 393 432 42 84 34 84 -60 2 -104 -90 -221 -164 -392 -247 -153 -73 -351
-153 -363 -146 -3 2 -6 55 -7 118 0 99 2 116 17 120 9 2 43 10 76 17 81 17 87
22 80 78 -31 236 -107 454 -232 674 l-56 99 25 151 c21 131 23 152 10 156 -8
1 -75 -5 -148 -14 l-134 -18 -55 47 -55 48 -1 124 c-1 68 -3 129 -4 134 -1 6
-3 19 -4 30 -1 18 -3 18 -42 5 -22 -8 -57 -24 -77 -34 -21 -11 -65 -33 -98
-50 l-61 -30 -64 30 c-35 17 -65 32 -67 34 -3 3 -70 234 -79 273 -3 12 -9 22
-14 22 -4 0 -54 -45 -111 -100 l-103 -101 -67 5 c-37 3 -76 9 -86 15 -17 9
-58 71 -120 182 -47 84 -52 89 -69 67z"/>
</g>
</svg>
